<svg width="57" height="57" viewBox="0 0 57 57" fill="none" xmlns="http://www.w3.org/2000/svg">
<g clip-path="url(#clip0_4384_13865)">
<path d="M29 57C44.7401 57 57 44.7401 57 29C57 13.2599 44.7401 0 29 0C13.2599 0 0 13.2599 0 29C0 44.7401 13.2599 57 29 57Z" fill="#B0421F"/>
<path d="M37 23C37.455 22.6849 38.0198 22.5907 38 22C37.9604 21.0744 37.7231 19.9058 38 19C38.6528 16.8339 40.745 16.0196 43 16C43.9099 16 45.0308 16 46 16C46 16.4529 46.0198 16.5667 46 17C45.9604 17.8861 46.178 19.1532 46 20C45.5253 22.2645 43.3341 23 41 23C40.4461 23 39.5539 23.0196 39 23C38.7626 23 39.1582 23.8227 39 24C38.8022 24.2363 38.0396 23.744 38 24C37.9604 24.2363 37.8813 24.7243 38 25C38.6132 26.5162 39.367 28.5034 40 30C39.9604 29.9015 40.0198 30.0393 40 30C40.356 29.6061 40.6637 29.3741 41 29C42.8791 30.7525 45.367 32.44 46 35C47.2264 39.9229 44.0242 45.1532 39 46C37.2 46.2953 34.6616 45.7482 33 45C32.7626 44.9015 33.2176 44.9409 33 45C28.2725 46.5753 23.6989 46.3082 20 43C19.3472 42.4092 18.5539 41.6892 18 41C17.8615 40.8227 18.2176 40.0196 18 40C17.1494 40 15.8506 40.1181 15 40C12.6857 39.6849 11.0198 37.3236 11 35C11 34.0351 11 33.0239 11 32C12.7011 32.1378 14.378 32.1729 16 33C16.5341 28.4906 18.745 24.8595 21 21C20.822 20.8424 20.2176 20.1575 20 20C19.9011 19.9409 20.0989 20 20 20C19.3868 19.9803 18.6132 20 18 20C15.3296 19.9803 13.0198 17.6583 13 15C13 14.0548 13 12.9845 13 12C13.5736 12 14.4461 11.9803 15 12C15.7714 12.0393 16.2483 11.8424 17 12C19.255 12.4726 21 14.7157 21 17C21 17.4922 21.0198 18.5077 21 19C20.9604 19.4332 21.6044 19.7637 22 20C22.0593 19.9212 21.9407 19.1181 22 19C23.5627 16.6173 25.1406 14.166 27 12C27.3363 11.6061 27.6242 11.3544 28 11C28.3956 10.6258 28.6242 10.6061 29 11C29.7912 11.8073 30.3077 13.1138 31 14C33.255 16.8552 35.2593 19.8296 37 23C37 23.0984 36.9407 22.9015 37 23ZM32 44C30.9912 43.0154 30.0286 41.9845 29 41C28.9011 41.0984 29.1582 40.8818 29 41C32.3231 37.6918 35.6769 34.3082 39 31C39.0593 31.2559 39.1582 30.8424 39 31C38.5846 29.4837 38.6923 27.4178 38 26C35.9824 21.7662 32.8879 17.6823 30 14C29.5055 13.3698 28.5539 12.6498 28 12C27.8615 12.1575 28.0791 12.8818 28 13C26.4176 14.851 25.3649 16.9914 24 19C21.9824 21.9734 19.3451 24.6524 18 28C17.3077 29.6934 17.0791 31.1489 17 33C16.9802 33.2363 16.8418 33.8424 17 34C17.7714 34.7679 18.8813 35.9366 19 37C19.0791 37.7876 18.9604 38.1926 19 39C19.0198 39.1969 18.9011 39.8227 19 40C19.6923 41.083 20.9714 42.2517 22 43C24.3934 44.7722 27.0527 45.315 30 45C30.6725 44.9606 31.3275 44.1378 32 44ZM41 31C41.3758 31.3544 41.644 31.6455 42 32C43.5231 33.5753 44.3363 35.8536 44 38C43.6242 40.5205 41.3737 42.0744 39 43C36.6263 43.9255 34.9978 43.6147 33 42C32.4461 41.5667 31.455 41.4332 31 41C30.7231 41.2363 30.2769 41.744 30 42C30.3956 42.3938 31.6044 42.6258 32 43C33.9583 44.8116 36.389 45.5119 39 45C43.5099 44.1335 45.3451 39.3912 44 35C43.4659 33.2671 42.3451 31.1815 41 30C40.7626 30.2756 41.2769 30.7046 41 31ZM42 38C39.9626 37.2714 38.0967 36.7482 36 36C36.7517 38.0873 37.2681 39.9914 38 42C39.8594 41.6061 41.6835 39.7722 42 38ZM19 19C17.9912 18.0154 16.9099 16.9058 16 16C16.2769 15.6849 16.7626 15.2756 17 15C17.2374 15.2166 17.7429 15.744 18 16C18 15.3304 17.9802 14.5907 18 14C18 13.7833 17.1978 14.0984 17 14C15.9912 13.6061 15.0484 13.0393 14 13C14 13.571 14 14.4683 14 15C14.0593 17.5008 16.4088 19.3938 19 19ZM40 32C38.9714 33.0042 38.0286 33.9563 37 35C38.8989 35.6695 41.0615 36.3107 43 37C43.0791 34.7354 41.5627 33.3193 40 32ZM35 37C33.9516 38.0436 33.0088 38.976 32 40C33.3253 41.5556 34.7253 43.0787 37 43C36.3077 41.0308 35.6725 38.8904 35 37ZM44 18C43.7626 18.1969 43.2967 18.7637 43 19C43.5341 19 44.5253 19 45 19C45 18.2714 45 17.8073 45 17C44.1099 17.059 42.8703 16.8621 42 17C41.3077 17.0984 41 17.3107 41 18C41 18.2953 41 18.7046 41 19C41 18.803 41 19.1969 41 19C41.0396 19 41.9604 19 42 19C42.5736 18.4092 42.4066 17.5907 43 17C43.2374 17.2756 43.6835 17.6849 44 18ZM15 36C14.9802 36 15.0198 35.9803 15 36C15 35.4092 14.9802 34.5907 15 34C15 33.7833 15.1978 34.0787 15 34C13.9912 33.6061 13.0088 34.0393 12 34C12 34.7679 12 35.2714 12 36C12.4747 36 12.5846 36 13 36C13.0198 35.9803 13.9802 36.0196 14 36C13.7626 35.803 13.2374 35.1969 13 35C13.2967 34.7046 13.7231 34.2756 14 34C14.5934 34.571 14.4264 35.4289 15 36ZM44 20C43.5451 20 43.4352 20.0393 43 20C42.4066 19.9212 42.3956 20.547 42 21C41.5055 21.571 40.5539 21.4486 40 22C41.8791 22.2559 43.2879 21.5556 44 20ZM13 37C13.7121 38.5753 15.1802 39.315 17 39C16.2879 38.3107 15.7121 37.6892 15 37C14.9407 36.9409 15.0791 37 15 37C14.3472 37 13.6725 37 13 37ZM20 18C20.1978 16.6609 19.7517 15.3938 19 15C19 15.7285 19 16.2714 19 17C18.9604 16.9606 19 17.0787 19 17C19.3363 17.3544 19.644 17.6455 20 18ZM39 22C39.2571 21.744 39.7824 21.1575 40 21C40.356 20.7243 40.0396 20.4529 40 20C39.9604 19.4289 40 18.6695 40 18C39.0505 19.0436 38.9209 20.6412 39 22ZM17 35C17 35.827 17 36.2517 17 37C16.9604 36.9803 17 37.059 17 37C17.3363 37.3544 17.6242 37.6061 18 38C18.0791 36.6412 17.9692 36.0436 17 35Z" fill="#FCF4DE"/>
<path d="M24 22C23.697 21.8263 23.3636 21.2124 23 21C24.0101 19.5135 24.9697 18.4865 26 17C26.3434 17.2317 26.697 17.7876 27 18C25.9697 19.4672 24.9899 20.5328 24 22Z" fill="#FCF4DE"/>
<path d="M23 24C22.6283 24.8085 22.3717 25.1915 22 26C21.6991 25.8085 21.3186 25.1915 21 25C21.3717 24.1915 21.6106 23.8298 22 23C22.3009 23.1915 22.6991 23.7872 23 24Z" fill="#FCF4DE"/>
<path d="M39.9999 40C39.9999 40.2215 39.2292 40.0138 38.9999 40C38.7706 39.9861 38.9999 39.2215 38.9999 39C38.9999 38.7646 39.7706 38.9861 39.9999 39C40.2148 39.0138 39.9999 39.7785 39.9999 40Z" fill="#FCF4DE"/>
<path d="M40.0002 35C39.7342 35 39.9845 34.2293 40.0002 34C39.7499 34 40.0002 33.7707 40.0002 34C40.2661 34 41.0158 34.7707 41.0002 35C41.0002 35.215 40.2505 35 40.0002 35Z" fill="#FCF4DE"/>
<path d="M35 39.9999C35 40.223 35.2496 40.986 35 40.9999C34.7348 41.0139 34.0156 41.2369 34 40.9999C34 40.7629 34.7348 39.9999 35 39.9999C35.2496 40.0139 35 39.7769 35 39.9999Z" fill="#FCF4DE"/>
</g>
<defs>
<clipPath id="clip0_4384_13865">
<rect width="57" height="57" fill="white"/>
</clipPath>
</defs>
</svg>
