<svg width="62" height="57" viewBox="0 0 62 57" fill="none" xmlns="http://www.w3.org/2000/svg">
<path d="M31 57C48.1208 57 62 44.7401 62 29C62 13.2599 48.1208 0 31 0C13.8792 0 0 13.2599 0 29C0 44.7401 13.8792 57 31 57Z" fill="#B0421F"/>
<path d="M31.0002 7.99999C32.1705 8.68824 33.0171 9.07514 34.0002 9.99999C35.8025 11.6991 37.298 13.7201 38.0002 16C38.0236 16.086 37.9768 16.8924 38.0002 17C38.7024 16.8709 39.298 16.086 40.0002 16C43.3474 15.5698 47.0274 16.4944 50.0002 18C50.3513 18.1721 50.0236 18.6559 50.0002 19C49.8597 22.6348 48.7622 25.376 46.0002 28C45.9065 28.086 45.0938 28.8924 45.0002 29C45.4215 29.4301 46.6257 29.5483 47.0002 30C48.9196 32.1938 49.7661 34.1824 50.0002 37C50.0236 37.3011 49.9768 37.6989 50.0002 38C50.0236 38.3656 50.3513 38.8064 50.0002 39C46.4891 40.7421 41.8858 40.9033 38.0002 40C37.9065 39.9785 38.0938 40 38.0002 40C37.9534 40 38.0704 40 38.0002 40C37.8831 40.3441 38.1172 40.6559 38.0002 41C36.8064 44.1617 34.1134 47.2363 31.0002 49C30.5788 49.2366 30.4215 49.2366 30.0002 49C26.6295 47.0643 24.1003 44.5058 23.0002 41C22.9768 40.914 23.047 40.129 23.0002 40C22.5086 40.086 22.4917 40.914 22.0002 41C18.4891 41.5807 15.1134 40.5486 12.0002 39C11.5788 38.8064 10.9768 38.4301 11.0002 38C11.1406 34.4082 12.2849 31.624 15.0002 29C15.0938 28.914 15.9065 29.086 16.0002 29C16.0002 29.0215 16.0236 28.9785 16.0002 29C15.4618 28.4193 14.4917 27.6022 14.0002 27C12.1042 24.6556 11.1172 21.9036 11.0002 19C10.9768 18.5698 11.5788 18.1936 12.0002 18C15.5113 16.2794 19.138 16.1182 23.0002 17C22.8597 16.9785 23.1172 17.0215 23.0002 17C23.164 16.5268 23.8129 15.4517 24.0002 15C25.2408 11.9889 27.004 9.67761 30.0002 7.99999C29.9065 8.08602 30.1172 7.93546 30.0002 7.99999C30.1874 7.97848 30.8129 7.99999 31.0002 7.99999ZM30.0002 33C30.0002 32.8279 30.0002 33.1721 30.0002 33C29.9768 33.3871 29.3513 34 29.0002 34C28.6491 34 29.0236 33.3871 29.0002 33C28.9768 32.8064 29.0002 33.1936 29.0002 33C29.0002 32.4838 28.4917 31.7419 28.0002 32C27.2043 32.4086 25.7726 32.5483 25.0002 33C24.7661 33.129 25.0938 33.7634 25.0002 34C24.298 35.398 23.7661 36.4944 24.0002 38C24.5385 41.6348 26.77 44.8277 30.0002 47C30.9833 47.6667 30.0405 47.6452 31.0002 47C34.2304 44.8277 36.4852 41.6348 37.0002 38C37.2342 36.4729 36.7024 35.398 36.0002 34C35.9065 33.8064 36.1874 33.129 36.0002 33C35.2043 32.5483 33.8194 32.4301 33.0002 32C32.532 31.7634 33.0002 32.5053 33.0002 33C33.0002 33.9894 33.0236 35.0106 33.0002 36C32.9768 37.0539 32.1003 37.9785 31.0002 38C29.9937 38.0215 29.1406 36.9463 29.0002 36C28.9534 35.6128 28.6257 35.0645 29.0002 35C29.3513 34.9355 29.9065 35.6128 30.0002 36C30.0002 35.9355 30.0236 36.0645 30.0002 36C30.0938 36.3226 30.6491 36.0215 31.0002 36C30.9768 36.3226 31.3279 35.9785 31.0002 36C31.0236 35.6989 31.0002 35.3226 31.0002 35C31.0002 34.2902 31.0002 33.7097 31.0002 33C30.5554 33 30.4215 33 30.0002 33ZM29.0002 23C29.2811 21.774 28.0535 20.7528 27.0002 20C26.6959 19.7849 26.3279 19.1936 26.0002 19C21.5762 16.5051 17.6817 16.9782 13.0002 19C12.7427 19.1075 11.9768 18.7849 12.0002 19C12.1874 21.9681 13.8467 24.8277 16.0002 27C17.5451 28.5701 19.6594 29.5483 22.0002 30C22.562 30.1075 22.415 30.3441 23.0002 30C23.7024 29.5698 25.2745 29.3871 26.0002 29C26.4683 28.7419 26.4683 28.2366 26.0002 28C25.0639 27.5053 23.9365 27.4947 23.0002 27C22.2745 26.6128 21.9065 25.7743 22.0002 25C22.164 23.645 23.7128 22.3332 25.0002 23C25.9599 23.4732 27.0405 24.5053 28.0002 25C28.5151 25.2796 29.0002 24.5377 29.0002 24C28.9768 23.5698 29.0002 23.4301 29.0002 23ZM32.0002 23C32.0002 23.4301 32.0002 23.5698 32.0002 24C32.0002 24.4732 32.5554 25.2151 33.0002 25C33.9599 24.5053 35.0405 23.4947 36.0002 23C36.5385 22.7204 37.415 22.8064 38.0002 23C38.7726 23.2581 38.93 24.2472 39.0002 25C39.0704 25.7313 38.7024 25.6128 38.0002 26C37.0639 26.5162 35.9599 27.4838 35.0002 28C34.4852 28.2796 34.4618 28.7204 35.0002 29C35.7492 29.4086 37.2277 29.6344 38.0002 30C38.2811 30.129 38.7193 30.0645 39.0002 30C39.8428 29.8279 40.2511 30.3656 41.0002 30C45.5178 27.8062 48.5086 23.6457 49.0002 19C49.047 18.6344 48.3513 19.1505 48.0002 19C44.8636 17.645 41.324 17.1827 38.0002 18C35.9871 18.5162 34.4046 19.5159 33.0002 21C32.5554 21.4517 31.9065 21.3763 32.0002 22C32.047 22.3011 32.0002 22.7204 32.0002 23ZM44.0002 29C42.4787 30.0969 40.943 31.6989 39.0002 32C39.2108 33.1399 39.1705 33.6128 38.0002 34C38.7024 35.6776 38.2811 37.2148 38.0002 39C38.562 39.1075 39.4618 38.914 40.0002 39C42.9729 39.4732 45.3083 39.2044 48.0002 38C48.2342 37.8924 49.0236 38.2151 49.0002 38C48.93 36.6665 48.5151 35.2259 48.0002 34C47.2745 32.2148 45.4982 30.312 44.0002 29ZM17.0002 29C14.4254 31.3444 12.2342 34.7093 12.0002 38C11.9768 38.2796 12.7193 37.8924 13.0002 38C15.4111 39.0754 17.3551 40.2581 20.0002 40C20.8194 39.914 22.1809 39.1505 23.0002 39C22.6959 37.1718 22.298 35.6776 23.0002 34C21.783 33.5913 21.7895 33.0969 22.0002 32C20.034 31.7419 18.5217 30.1184 17.0002 29ZM37.0002 17C37.0002 16.914 37.0002 17.043 37.0002 17C36.0873 13.8383 33.9963 10.7851 31.0002 8.99999C30.8831 8.93546 30.1172 8.93546 30.0002 8.99999C27.0977 10.7421 24.9365 13.9243 24.0002 17C23.9065 17.2796 24.7193 16.8924 25.0002 17C26.1003 17.4086 27.0873 18.2687 28.0002 19C28.4449 19.3656 28.6022 19.5913 29.0002 20C30.0301 19.2257 31.0405 19.2687 32.0002 20C33.2408 18.602 35.2212 17.6452 37.0002 17ZM30.0002 26C28.1978 26 27.0002 26.3439 27.0002 28C27.0002 29.6776 29.1744 31 31.0002 31C32.8025 31 34.0002 30.6561 34.0002 29C34.0002 27.3224 31.826 26 30.0002 26ZM35.0002 27C35.9599 26.5053 37.0873 25.4732 38.0002 25C38.164 25.3011 38.3747 24.8064 38.0002 25C37.8363 24.7204 37.3513 23.8279 37.0002 24C36.0405 24.4947 34.9599 25.4838 34.0002 26C34.2108 26.3441 34.7895 26.6344 35.0002 27ZM26.0002 30C25.0405 30.5162 23.9365 31.4838 23.0002 32C22.6725 32.1721 22.8363 31.7204 23.0002 32C23.164 32.2796 23.6491 33.1505 24.0002 33C24.3513 32.8279 24.6491 32.1936 25.0002 32C25.5854 31.6774 26.415 31.3226 27.0002 31C26.7895 30.6559 26.2342 30.3441 26.0002 30ZM34.0002 31C34.9599 31.4947 36.0639 32.5053 37.0002 33C37.3513 33.1721 37.8363 32.2581 38.0002 32C38.1874 31.7204 38.3279 32.1721 38.0002 32C37.0639 31.4838 35.9599 30.5162 35.0002 30C34.8129 30.3441 34.2108 30.6559 34.0002 31ZM27.0002 26C26.0639 25.5053 24.9131 24.4732 24.0002 24C23.6257 23.8064 23.1874 24.6989 23.0002 25C22.6257 24.7849 22.8129 25.3011 23.0002 25C23.7258 25.3871 25.2511 26.5913 26.0002 27C25.8363 26.914 26.1874 27.086 26.0002 27C26.2342 26.6344 26.7895 26.3656 27.0002 26ZM31.0002 24C31.0002 23.0106 31.0002 21.9678 31.0002 21C31.0002 20.5698 30.3981 21 30.0002 21C29.6022 21 30.0002 20.5483 30.0002 21C30.0002 21.9033 30.0002 23.0967 30.0002 24C29.9768 23.957 30.0002 24.0645 30.0002 24C30.3981 24 30.5788 24 31.0002 24Z" fill="#FCF4DE"/>
<path d="M33 29C33 30.0712 32.0885 31 31 31C29.9351 31.0238 29.0236 30.0712 29 29C28.9763 27.9288 29.9114 27 31 27C32.0648 27 33 27.9288 33 29ZM32 29C32 28.6191 31.3786 28 31 28C30.6213 28 30 28.6191 30 29C30 29.3809 30.6213 30 31 30C31.3786 30 32 29.3571 32 29Z" fill="#FCF4DE"/>
</svg>
