<svg width="57" height="57" viewBox="0 0 57 57" fill="none" xmlns="http://www.w3.org/2000/svg">
<g clip-path="url(#clip0_4384_13819)">
<path d="M29 57C44.7401 57 57 44.7401 57 29C57 13.2599 44.7401 0 29 0C13.2599 0 0 13.2599 0 29C0 44.7401 13.2599 57 29 57Z" fill="#B0421F"/>
<path d="M39 11C39.8079 11.3017 39.899 12.1754 40 13C40.4443 16.1575 42.1321 18.552 45 20C45.202 20.1006 45.8182 19.8994 46 20C46.7271 20.4626 47.0808 21.1553 47 22C46.6163 25.4189 45.3128 28.8023 44 32C41.0513 39.1194 37.0284 44.6414 30 48C29.5557 48.2212 28.4443 48.2011 28 48C21.214 44.742 16.9689 39.8177 14 33C12.6671 29.9431 11.4443 26.3184 11 23C10.9394 22.6179 11.0202 22.4022 11 22C10.9596 21.1151 11.1922 20.362 12 20C13.1916 19.4771 14.1316 18.9653 15 18C16.2522 16.5922 17.7981 14.8704 18 13C18.0808 12.1955 18.2124 11.3017 19 11C25.8668 11 32.1332 11 39 11ZM29 12C25.7686 12 22.2314 12 19 12C18.5759 12 19.0404 12.638 19 13C18.8384 14.629 17.8685 15.6324 17 17C15.9094 18.6894 14.8379 20.1754 13 21C12.5355 21.2011 11.9394 21.5576 12 22C12.0606 22.4424 11.9394 22.5576 12 23C12.5857 26.9217 14.1419 30.4805 16 34C18.9083 39.4904 23.3854 44.2649 29 47C28.7779 47.1006 29.1818 47.1006 29 47C32.9383 45.0894 36.3139 42.4591 39 39C41.8073 35.38 43.9296 31.4245 45 27C45.3837 25.4313 45.7375 23.5888 46 22C46.0808 21.457 45.5049 21.2413 45 21C44.6163 20.819 44.3636 20.2413 44 20C41.2533 18.2704 39.4039 16.2178 39 13C38.9192 12.3967 39.6261 12 39 12C35.809 11.9799 32.191 12 29 12Z" fill="#FCF4DE"/>
<path d="M27.0002 31C27.7046 29.9714 28.2959 29.0088 29.0002 28C30.4286 25.9231 31.5719 24.0769 33.0002 22C33.4894 21.2879 34.1589 20.8615 35.0002 21C35.8025 21.1385 36.8046 21.189 37.0002 22C37.1568 22.6329 37.372 23.4659 37.0002 24C35.3567 26.3933 33.6438 28.6066 32.0002 31C31.1393 32.2461 29.8611 33.7341 29.0002 35C28.1785 36.1868 27.0372 35.989 26.0002 35C24.3371 33.4374 22.6438 32.5428 21.0002 31C20.3741 30.4264 19.7654 29.8307 20.0002 29C20.4111 27.5956 21.9045 26.9912 23.0002 28C24.0764 28.989 25.9241 29.9912 27.0002 31C27.0981 31.0989 26.8633 30.8813 27.0002 31ZM22.0002 28C21.6089 28.0791 21.1372 28.644 21.0002 29C20.8633 29.4154 20.7067 29.7231 21.0002 30C22.6829 31.5626 24.3176 33.4374 26.0002 35C26.5481 35.5143 27.5698 34.6329 28.0002 34C30.5047 30.3407 33.4958 27.679 36.0002 24C36.0785 23.8813 35.9415 23.1385 36.0002 23C36.1176 22.6835 36.235 22.2374 36.0002 22C35.785 21.7626 35.2937 21.8418 35.0002 22C34.7654 22.1187 34.1568 22.7824 34.0002 23C31.8284 26.145 30.1525 28.855 28.0002 32C27.5698 32.6329 26.5481 32.534 26.0002 32C24.7871 30.8528 24.2329 30.1472 23.0002 29C22.8046 28.8615 22.235 28.1187 22.0002 28Z" fill="#FCF4DE"/>
<path d="M13.9998 22C13.98 21.5978 13.6632 21.2011 13.9998 21C14.9699 20.4369 16.2079 19.8045 16.9998 19C17.2572 18.7386 17.782 18.7587 17.9998 19C18.1978 19.2213 18.277 19.7788 17.9998 20C17.1683 20.6838 15.8511 21.3564 14.9998 22C14.8216 22.1408 14.9602 21.7587 14.9998 22C15.7323 26.6459 17.3865 32.0782 19.9998 36C22.2766 39.4191 25.4164 42.0492 28.9998 44C29.1186 44.0604 29.8612 44.0805 29.9998 44C33.6822 41.9687 36.7032 38.5599 38.9998 35C38.881 35.1609 39.1186 34.8391 38.9998 35C39.2176 34.6782 39.7226 33.819 39.9998 34C40.2572 34.181 40.2176 34.6782 39.9998 35C39.3069 36.0056 38.7719 37.0548 37.9998 38C35.8616 40.6548 32.9893 43.371 29.9998 45C29.5642 45.2414 29.4551 45.2414 28.9998 45C23.2584 41.8625 18.4943 37.0538 15.9998 31C14.9307 28.4257 14.4155 25.7554 13.9998 23C13.9602 22.8592 13.9998 22.1006 13.9998 22Z" fill="#FCF4DE"/>
<path d="M36.9998 15C36.6791 15 36.3005 15 35.9998 15C31.0885 15 25.9111 15 20.9998 15C20.6991 15 20.08 14.68 19.9998 15C19.7192 16.1199 19.6012 18.0201 18.9998 19C18.7793 19.38 18.2805 19.18 17.9998 19C17.6991 18.82 17.7793 18.38 17.9998 18C18.6212 17.0001 18.6991 16.1399 18.9998 15C19.1602 14.4001 20.3784 14 20.9998 14C26.3522 14 31.6475 14 36.9998 14C37.6213 14 37.8394 14.3801 37.9998 15C38.8217 18.1397 40.1933 20.3602 42.9998 22C43.5812 22.34 44.1 22.3201 43.9998 23C43.4786 26.4797 42.5434 29.8403 40.9998 33C40.9597 33.06 41.0399 33.92 40.9998 34C40.8194 34.32 40.2604 34.12 39.9998 34C39.7192 33.86 39.8394 33.32 39.9998 33C40.1602 32.64 39.8194 32.38 39.9998 32C41.2427 29.2603 42.5187 25.9597 42.9998 23C43.0399 22.78 43.2203 23.14 42.9998 23C40.0931 21.2602 37.9019 18.2797 36.9998 15C37.0399 15.1 36.9798 14.9 36.9998 15Z" fill="#FCF4DE"/>
</g>
<defs>
<clipPath id="clip0_4384_13819">
<rect width="57" height="57" fill="white"/>
</clipPath>
</defs>
</svg>
