<svg width="57" height="57" viewBox="0 0 57 57" fill="none" xmlns="http://www.w3.org/2000/svg">
<path d="M29 57C44.7401 57 57 44.7401 57 29C57 13.2599 44.7401 0 29 0C13.2599 0 0 13.2599 0 29C0 44.7401 13.2599 57 29 57Z" fill="#B0421F"/>
<path d="M15 26C13.6063 24.63 12.6004 23.7615 12 22C11.4854 20.4342 12 18.6528 12 17C12 16.4781 11.4854 16 12 16C14.3801 16 17.6414 16.369 20 18C19.9786 18.1088 20.0429 17.8913 20 18C20.7291 16.108 21.6921 14.5223 23 13C23.4503 12.4781 24.5283 12.4564 25 13C26.2866 14.5006 27.2496 16.1515 28 18C27.9786 17.913 28.0429 18.087 28 18C28.7934 17.8478 29.2281 18.1305 30 18C30.3431 17.9348 30.657 17.9783 31 18C31.4289 18.0218 31.6784 17.261 32 17C34.4016 15.0863 36.5985 13.892 39 12C40.2866 10.9779 42.7564 10.9997 44 12C45.5224 13.2179 45.2866 15.543 44 17C41.2126 20.1533 38.7661 22.8467 36 26C35.9357 26.0653 36.1073 25.8695 36 26C35.8714 26 36.1716 26 36 26C38.7446 26 41.2555 26 44 26C44.6004 26 45.0215 26.4129 45 27C44.8499 32.7195 42.5243 37.564 38 41C37.8071 41.1523 38 40.7608 38 41C38.0215 42.0221 38 42.9779 38 44C38 44.5437 37.5361 45 37 45C31.082 45 24.9181 45 19 45C18.4854 45 18 44.5002 18 44C18 42.9562 18 42.0439 18 41C18 40.7608 18.1716 41.1305 18 41C14.1833 38.1947 11.772 34.6974 11 30C10.8499 29.1519 11.0429 27.8482 11 27C10.9786 26.4564 11.464 26 12 26C13.1579 26 13.7564 26 15 26ZM19 44C24.6608 44 30.3608 44 36 44C36 42.9344 36 42.0439 36 41C36 40.6738 36.7213 40.174 37 40C40.6881 37.4339 43.1852 34.4364 44 30C44.1287 29.3041 43.9357 27.7177 44 27C33.4291 27 22.571 27 12 27C12.1072 27.8482 11.8285 29.1736 12 30C12.8792 34.2624 15.4621 37.5209 19 40C19.2788 40.1957 20 40.6521 20 41C19.9786 42.0439 19 42.9562 19 44ZM30 26C31.115 26 32.8422 26 34 26C33.9143 26.087 34.1073 26 34 26C37.0234 22.5857 39.9767 19.4143 43 16C43.8148 15.0649 43.8148 13.8699 43 13C42.2067 12.1301 40.9435 12.2606 40 13C37.5128 14.9573 35.4873 17.021 33 19C32.8928 19.087 33 18.8478 33 19C32.9357 20.5006 32.5361 21.6082 32 23C31.6141 24.0221 30.4718 24.9562 30 26ZM16 25C15.9786 25.0218 16.0215 24.9783 16 25C16.3217 25.2827 16.6355 25.7608 17 26C16.7856 26 17.1716 26.1305 17 26C18.9298 26.0218 21.0703 26 23 26C23.1287 26 23.8285 26 24 26C23.4854 23.7383 22.694 21.718 21 20C21 21.3701 21 22.717 21 24C20.9357 23.9348 21 24.1088 21 24C21.2573 24.261 21.6999 24.7391 22 25C21.6999 25.3045 21.3002 25.6956 21 26C20.7427 25.7391 20.2788 25.261 20 25C19.9143 24.9348 20.1072 25 20 25C18.735 25 17.2651 25 16 25ZM23 22C23.6862 23.3701 24.6999 24.6082 25 26C24.9143 26 25.0215 26.087 25 26C26.1579 26.0218 27.8422 26 29 26C28.9572 26.0435 29.0858 26 29 26C29.3646 25.4781 29.6141 25.5872 30 25C29.0995 25 27.772 25.0653 27 25C26.3568 24.9565 26.386 24.4346 26 25C25.9786 25.0218 26.0429 24.9783 26 25C25.7427 24.7391 25.3431 24.348 25 24C24.8714 24.087 25.1287 23.913 25 24C25.2573 23.8043 26.0215 23.348 26 23C25.9786 22.3041 26 21.6959 26 21C26 20.7391 26 20.2827 26 20C25.9572 19.9783 26.0429 20.0435 26 20C25.271 20.5654 23.772 21.4346 23 22ZM23 21C24.115 19.9344 25.5634 19.5654 27 19C26.7642 18.4781 26.2573 17.5872 26 17C25.6999 17.3262 25.2573 17.7826 25 18C24.5283 18.4132 24.8714 18.3476 25 19C25 19 25 19.0218 25 19C24.6355 19 23.386 19 23 19C23 18.8478 23 19.1305 23 19C22.9786 18.8261 23.0858 19.1088 23 19C22.5712 18.5216 22.4932 17.5002 22 17C21.7213 17.6959 21.2359 18.3694 21 19C20.9357 18.9348 20.9786 19.0653 21 19C21.4718 19.5437 22.464 20.4129 23 21ZM19 23C19 21.6735 19 21.1961 19 20C19 19.9565 19.0215 19.0218 19 19C18.464 18.6956 18.6004 18.348 18 18C18 19.0656 18 20.0649 18 21C18 21.087 17.9357 21.9348 18 22C18.5146 22.5437 18.4211 22.4129 19 23ZM14 22C14.3002 22.5437 14.7427 23.5433 15 24C14.8071 24 15.1072 24.174 15 24C15.8363 24 17.1638 24 18 24C18.3002 24 18.6998 24 19 24C18.5283 23.4129 17.5361 22.522 17 22C16.9572 21.9565 17.0644 22 17 22C16.0566 22.0218 15.0721 22 14 22ZM17 20C17 19.3041 17 18.7177 17 18C17 17.9348 16.0858 18.0218 16 18C15.3139 17.8261 14.6862 17.174 14 17C13.7856 16.9565 14.193 17.0218 14 17C14.9649 18.0004 16.0351 19.0214 17 20ZM13 18C12.9786 18 13.0215 18 13 18C13.1501 18.7394 12.8285 19.2824 13 20C13.1716 20.7394 13.271 21 14 21C14.5146 21 15.4425 21 16 21C15.0137 19.9997 13.9435 18.9569 13 18ZM27 23C26.9572 22.9783 27.0215 23.0218 27 23C27.5147 22.4781 27.5069 21.522 28 21C28.0429 20.9565 29 21.0653 29 21C29 20.5216 29 19.5437 29 19C28.4425 19.174 27.5147 19.8261 27 20C26.9357 20.0218 27 19.913 27 20C26.9786 20.8264 27 22.1736 27 23ZM28 23C28.9221 23 29.1852 23 30 23C29.9786 23.0653 30.0644 23 30 23C30.1716 22.4781 30.8285 22.5654 31 22C30.464 22 30.4503 22 30 22C29.9357 22 29.0429 21.9348 29 22C28.464 22.522 28.6004 22.4129 28 23ZM31 19C30.3997 19.0653 30.5147 18.9348 30 19C30 19.5437 30 20.5216 30 21C30.4932 21 30.5069 21 31 21C31.0858 20.4346 30.9357 19.5872 31 19ZM23 15C22.9786 14.9783 23.0215 15.0218 23 15C22.7427 15.3915 23.2145 15.6738 23 16C23.2788 16.2827 22.7427 16.7391 23 17C23 16.3911 23 15.6307 23 15ZM25 17C25.3002 16.6956 24.7213 16.2827 25 16C24.7427 15.6086 25.3217 15.4785 25 15C25 15.7612 25 16.2824 25 17Z" fill="#FCF4DE"/>
<path d="M20 37V33V34C19.9316 34.0644 19.0853 34 19 34C18.8463 34 19 33.1932 19 33C18.8804 33.1074 19 32.8497 19 33L20 32C20.1878 31.8497 20.8463 32 21 32C21.2732 32 21 32.678 21 33V36C21 36.3006 21.239 37 21 37C20.7609 37 20 37.2791 20 37Z" fill="#FCF4DE"/>
<path d="M22 34C22 32.4581 22.764 32 24 32C25.236 32 26 32.4581 26 34C26 35.5419 25.236 37 24 37C22.764 37 22 35.5419 22 34ZM25 34C25 32.8987 24.5843 33 24 33C23.3933 33 23 32.8987 23 34C23 35.1013 23.3933 36 24 36C24.6067 36 25 35.1013 25 34Z" fill="#FCF4DE"/>
<path d="M27 34C27 32.4581 27.764 32 29 32C30.236 32 31 32.4581 31 34C31 35.5419 30.236 37 29 37C27.764 37 27 35.5419 27 34ZM30 34C30 32.8987 29.5843 33 29 33C28.3933 33 28 32.8987 28 34C28 35.1013 28.3933 36 29 36C29.6067 36 30 35.1013 30 34Z" fill="#FCF4DE"/>
<path d="M31 33C31 32.1988 31.2969 32 32 32C32.7031 32 33 32.1988 33 33C33 33.7795 32.7031 35 32 35C31.2969 35 31 33.8012 31 33ZM33 33C33 32.5019 32.2578 33 32 33C31.7422 33 32 32.4803 32 33C32 33.498 31.7422 34 32 34C32.2578 34 33 33.5197 33 33ZM32 37C32 36.9134 31.9531 36.0866 32 36L34 34L35 32C35.1172 31.8484 35.8359 32 36 32C36 31.8484 36.1875 32 36 32C36 32.0866 36.0469 32.935 36 33L34 35L33 37C32.9062 37.1516 32.1406 37 32 37C32 37.1732 31.8125 37.0216 32 37ZM35 36C35 35.1988 35.2969 34 36 34C36.7031 34 37 35.1988 37 36C37 36.8012 36.7031 37 36 37C35.2969 37 35 36.8012 35 36ZM36 36C36 35.5019 36.2344 35 36 35C35.7656 35 35 35.4803 35 36C35 36.498 35.7656 36 36 36C36.2344 36 36 36.5197 36 36Z" fill="#FCF4DE"/>
</svg>
