<svg width="57" height="57" viewBox="0 0 57 57" fill="none" xmlns="http://www.w3.org/2000/svg">
<g clip-path="url(#clip0_4384_13835)">
<path d="M29 57C44.7401 57 57 44.7401 57 29C57 13.2599 44.7401 0 29 0C13.2599 0 0 13.2599 0 29C0 44.7401 13.2599 57 29 57Z" fill="#B0421F"/>
<path d="M15.0002 18C16.672 17.0148 19.3285 15.9651 21.0002 15C22.7516 13.9746 24.2489 13.0054 26.0002 12C26.2391 11.8593 26.04 11.3016 26.0002 11C25.7415 9.59258 26.6669 8.30163 28.0002 8.00004C29.3336 7.69844 30.6619 8.673 31.0002 10C31.0998 10.4022 31.0599 10.5979 31.0002 11C30.9405 11.3016 30.8012 11.8995 31.0002 12C33.2093 13.2869 35.7912 13.7132 38.0002 15C39.2142 15.7038 39.9057 17.3767 41.0002 18C41.5973 17.7185 42.4828 17.1207 43.0002 17C44.2739 16.6984 45.642 17.7333 46.0002 19C46.3585 20.2869 45.254 21.5577 44.0002 22C43.6619 22.1207 44.0002 21.6381 44.0002 22C44.0201 25.8002 44.0201 30.1999 44.0002 34C43.6619 33.8794 44.0002 34.3217 44.0002 34C44.9555 34.3217 45.9604 36.0349 46.0002 37C46.04 38.126 45.9953 38.5175 45.0002 39C44.0251 39.4826 42.8162 39.7038 42.0002 39C41.7614 38.799 41.259 38.8392 41.0002 39C37.6966 40.9303 34.3039 42.0698 31.0002 44C30.7614 44.1408 30.9405 44.6984 31.0002 45C31.259 46.4075 30.3137 47.7386 29.0002 48C27.647 48.2815 26.3187 47.3472 26.0002 46C25.9007 45.618 25.9405 45.4022 26.0002 45C26.04 44.7185 26.1993 44.1207 26.0002 44C24.0698 42.8741 21.9307 42.126 20.0002 41C18.6072 40.1757 17.3933 39.8244 16.0002 39C15.8012 38.8794 15.1794 38.8392 15.0002 39C14.1644 39.744 12.9953 39.4625 12.0002 39C11.045 38.5577 10.9405 37.1059 11.0002 36C11.0002 35.0148 12.0251 34.3217 13.0002 34C13.0002 34.2614 13.259 33.9196 13.0002 34C13.0002 30.1195 13.0002 25.8806 13.0002 22C13.0002 21.7588 13.259 22.0805 13.0002 22C12.0052 21.6783 11.0798 20.9651 11.0002 20C10.9206 18.8942 11.0649 17.4826 12.0002 17C12.9356 16.5376 14.1843 16.2762 15.0002 17C15.0798 17.0805 14.9007 17.9196 15.0002 18ZM16.0002 37C15.9604 37.0201 16.04 36.9799 16.0002 37C16.0998 37.0805 15.9007 37.9397 16.0002 38C19.3437 39.9504 22.6568 42.0296 26.0002 44C26.1993 44.1207 26.8211 44.1609 27.0002 44C28.0351 43.0952 28.9853 43.0952 30.0002 44C30.1794 44.1609 30.8012 44.1207 31.0002 44C34.3437 42.0497 37.6568 39.9303 41.0002 38C41.2192 37.8794 41.04 37.2614 41.0002 37C40.7415 35.7132 41.7863 34.4022 43.0002 34C43.0002 34.3016 43.3187 33.8995 43.0002 34C43.0002 30.1597 43.0002 25.8404 43.0002 22C43.0002 21.7185 43.2988 22.1006 43.0002 22C41.7664 21.5979 40.7216 20.2667 41.0002 19C41.0599 18.7185 41.2192 18.1408 41.0002 18C37.6767 16.0698 34.3238 13.9303 31.0002 12C30.7813 11.8794 30.1993 11.8191 30.0002 12C28.9853 12.8847 28.0152 12.8847 27.0002 12C26.8012 11.8191 26.2192 11.8593 26.0002 12C22.6767 13.9102 19.3238 16.0698 16.0002 18C15.7614 18.1408 15.9405 18.7387 16.0002 19C16.259 20.2667 15.2341 21.5778 14.0002 22C13.7216 22.0805 14.0002 21.7185 14.0002 22C14.0002 25.8605 14.0002 30.1396 14.0002 34C13.7415 33.9196 14.0002 34.2815 14.0002 34C14.9157 34.3217 15.841 35.0148 16.0002 36C16.0798 36.3821 16.0002 36.618 16.0002 37ZM28.0002 47C28.8958 47 29.9803 45.8847 30.0002 45C30.0201 44.1153 29.8759 44.0201 29.0002 44C28.1445 43.9799 27.0201 44.1355 27.0002 45C26.9803 45.8847 27.1246 46.9799 28.0002 47ZM28.0002 9.00004C27.1047 9.00004 27.0002 10.1153 27.0002 11C27.0002 11.8847 27.1246 12 28.0002 12C28.8759 12 30.0002 11.8847 30.0002 11C30.0002 10.0952 28.8759 9.00004 28.0002 9.00004ZM15.0002 37C15.0002 36.0952 14.8759 35 14.0002 35C13.1246 35 12.0201 36.0952 12.0002 37C12.0002 37.9048 13.1246 38 14.0002 38C14.8958 37.9799 15.0002 37.8847 15.0002 37ZM42.0002 37C42.0002 37.9048 42.1246 38 43.0002 38C43.8759 38 45.0002 37.8847 45.0002 37C45.0002 36.1153 43.8759 35 43.0002 35C42.1246 34.9799 42.0002 36.0952 42.0002 37ZM42.0002 19C42.0002 19.9048 42.1246 21 43.0002 21C43.8759 21 45.0002 19.9048 45.0002 19C45.0002 18.0952 43.8958 18 43.0002 18C42.1047 18 42.0002 18.0952 42.0002 19ZM15.0002 19C15.0002 18.0952 14.8958 18 14.0002 18C13.1047 18 12.0201 18.0952 12.0002 19C12.0002 19.9048 13.1246 20.9799 14.0002 21C14.8958 21 15.0002 19.9048 15.0002 19Z" fill="#FCF4DE"/>
<path d="M31.0003 22C31.3682 21.6264 31.5937 21.4523 32.0003 21C32.0778 20.9214 32.0003 20.118 32.0003 20C31.826 18.8202 32.8579 18.6854 34.0003 19C35.2009 19.3343 35.7099 19.7809 36.0003 21C36.2521 22.0618 36.0653 23.1573 35.0003 23C34.8454 22.9804 34.0971 22.9017 34.0003 23C33.6324 23.3146 33.3489 23.6658 33.0003 24C32.8454 24.1377 32.9229 23.8231 33.0003 24C33.2714 24.5899 33.7873 25.3905 34.0003 26C34.0778 26.2163 33.768 27 34.0003 27C34.2521 27 34.7486 26.9804 35.0003 27C35.5232 27.0394 35.613 26.4916 36.0003 26C36.4457 25.4101 37.4581 25.4888 38.0003 26C38.9879 26.9242 38.9879 29.0759 38.0003 30C37.3807 30.5703 36.5425 30.7276 36.0003 30C35.826 29.7641 36.2908 30 36.0003 30C35.5937 30.0197 34.4263 30.0197 34.0003 30C33.768 30 34.0778 29.7641 34.0003 30C33.7873 30.6096 33.2714 31.4101 33.0003 32C32.8454 31.8624 32.9229 32.1967 33.0003 32C33.2133 32.177 33.826 32.7837 34.0003 33C34.3489 33.3933 34.4 33.059 35.0003 33C35.8523 32.9214 36.1552 34.1152 36.0003 35C35.7873 36.1995 35.1815 36.8034 34.0003 37C33.0321 37.1573 31.826 37.0028 32.0003 36C32.0391 35.7444 32.1746 35.1573 32.0003 35C31.6518 34.6658 31.3489 34.3146 31.0003 34C30.9229 33.9214 31.1165 33.9607 31.0003 34C30.4 34.236 29.6006 34.7248 29.0003 35C28.8841 35.059 29.0197 34.8821 29.0003 35C28.9616 35.2753 28.0197 35.7248 28.0003 36C27.981 36.5113 28.5162 36.6264 29.0003 37C29.62 37.4719 29.5425 38.4495 29.0003 39C28.0902 39.9439 26.9298 39.9242 26.0003 39C25.3613 38.3708 25.2645 37.5506 26.0003 37C26.0197 37.295 26.2327 36.8231 26.0003 37C25.981 36.5871 25.981 35.4326 26.0003 35C26.0003 34.7837 26.2133 35.0787 26.0003 35C25.4 34.7837 24.6006 34.236 24.0003 34C23.8841 33.9607 24.0971 33.9214 24.0003 34C23.768 34.1967 23.2133 34.8034 23.0003 35C22.6518 35.3146 22.9229 35.4298 23.0003 36C23.0971 36.8652 21.8717 37.1377 21.0003 37C19.8191 36.8034 19.194 36.1995 19.0003 35C18.826 33.9579 18.9547 32.8624 20.0003 33C20.1552 33.0197 20.8648 33.0983 21.0003 33C21.3489 32.7051 21.6518 32.3146 22.0003 32C22.0971 32.2163 22.1552 31.8427 22.0003 32C21.7292 31.4101 21.2133 30.6096 21.0003 30C20.9229 29.7837 21.2133 30 21.0003 30C20.7486 30.0197 20.2521 30.0197 20.0003 30C19.4581 30.0394 19.3876 29.5281 19.0003 30C18.5356 30.5899 17.5425 30.5309 17.0003 30C16.0709 29.0759 16.0709 26.9439 17.0003 26C17.62 25.3708 18.4581 25.2528 19.0003 26C19.1746 26.236 18.7292 27 19.0003 27C19.407 26.9804 20.5743 26.9804 21.0003 27C21.2327 27 20.9229 26.2557 21.0003 26C21.2133 25.3905 21.7292 24.5899 22.0003 24C22.0971 23.8034 22.1552 24.1377 22.0003 24C21.768 23.7837 21.194 23.236 21.0003 23C20.6905 22.6461 20.5232 22.941 20.0003 23C19.187 23.0983 18.9616 21.8652 19.0003 21C19.0584 19.7613 19.7804 19.0787 21.0003 19C21.9879 18.941 23.1746 19.0169 23.0003 20C22.9616 20.2557 22.8454 20.8427 23.0003 21C23.3295 21.3146 23.6905 21.6658 24.0003 22C23.8067 22.0983 24.1359 22.1377 24.0003 22C24.5812 21.7247 25.4194 21.2753 26.0003 21C26.0003 21.1377 26.1165 20.941 26.0003 21C26.0391 20.5085 26.0197 19.4916 26.0003 19C26.0003 18.8624 26.0971 19.0787 26.0003 19C24.9934 18.1938 24.8579 16.5703 26.0003 16C27.046 15.4691 27.9934 15.3708 29.0003 16C29.9492 16.5899 29.8911 18.3118 29.0003 19C28.8067 19.1377 27.981 18.7641 28.0003 19C28.0197 19.4719 28.981 20.5281 29.0003 21C28.9035 20.9607 29.0003 21.118 29.0003 21C29.7168 21.3146 30.2258 21.7051 31.0003 22ZM33.0003 28C33.0003 24.5983 30.3503 22.0197 27.0003 22C23.6116 22 22.0003 24.5983 22.0003 28C22.0003 31.4214 23.631 34 27.0003 34C30.3503 34.0197 33.0003 31.4017 33.0003 28ZM27.0003 19C27.4263 18.8427 27.6324 18.1967 28.0003 18C28.3489 17.8034 28.3295 17.2557 28.0003 17C27.4 16.5281 26.6006 16.5281 26.0003 17C25.6711 17.2557 25.6518 17.8034 26.0003 18C26.407 18.2163 26.5743 18.8427 27.0003 19ZM27.0003 38C26.5937 38.1573 26.3682 37.8034 26.0003 38C25.613 38.2163 25.6518 38.7248 26.0003 39C26.6006 39.4719 27.4 39.4523 28.0003 39C28.3682 38.7248 28.407 38.2163 28.0003 38C27.6518 37.8034 27.4263 38.1573 27.0003 38ZM19.0003 28C18.826 27.5478 18.2133 27.3736 18.0003 27C17.8067 26.6461 17.2327 26.6854 17.0003 27C16.5162 27.5899 16.5162 28.4101 17.0003 29C17.2521 29.3146 17.8067 29.3343 18.0003 29C18.2133 28.6068 18.8454 28.4326 19.0003 28ZM36.0003 28C36.1552 28.4326 36.7873 28.6264 37.0003 29C37.194 29.3736 37.7292 29.3343 38.0003 29C38.4651 28.4101 38.4651 27.6096 38.0003 27C37.7292 26.6461 37.2133 26.6264 37.0003 27C36.7873 27.3933 36.1552 27.5674 36.0003 28ZM35.0003 21C35.0003 20.1938 34.7942 19.9804 34.0003 20C33.7099 20 33.0003 19.7051 33.0003 20C33.0003 20.7866 34.2064 21.9804 35.0003 22C35.3101 22 35.0197 21.3146 35.0003 21ZM22.0003 20C22.0197 19.6658 21.3489 20 21.0003 20C20.2258 20.0197 20.0197 20.2135 20.0003 21C19.981 21.3736 19.6518 22.0197 20.0003 22C20.7942 21.941 21.981 20.7669 22.0003 20ZM20.0003 34C19.6711 33.9804 20.0003 34.6658 20.0003 35C20.0197 35.7866 20.2258 36.9607 21.0003 37C21.3295 37.0197 22.0003 36.354 22.0003 36C22.0003 35.2332 20.7749 34.0197 20.0003 34ZM34.0003 37C34.7749 36.9804 34.981 35.7866 35.0003 35C35.0197 34.6658 35.3295 33.9804 35.0003 34C34.2258 34.0197 33.0197 35.2135 33.0003 36C32.981 36.3343 33.6711 37.0197 34.0003 37ZM26.0003 19C26.0003 19.4326 26.0003 20.5674 26.0003 21C26.0003 21.059 26.9229 20.9804 27.0003 21C26.7292 21.0197 27.2714 21.0197 27.0003 21C27.0584 21 28.0003 21.059 28.0003 21C28.0197 20.5674 28.0003 19.4326 28.0003 19C27.5937 19 26.407 19 26.0003 19ZM28.0003 37C28.0003 36.5478 28.0003 35.413 28.0003 35C28.0003 34.941 27.0391 35 27.0003 35C26.6711 34.9804 27.3295 34.9804 27.0003 35C26.9616 35 26.0003 34.9607 26.0003 35C26.0003 35.4326 26.0003 36.5478 26.0003 37C26.407 36.9804 27.5743 37 28.0003 37ZM32.0003 23C31.768 22.7247 32.2521 23.295 32.0003 23C32.3489 22.6461 32.6905 22.3146 33.0003 22C32.7486 21.7247 33.2327 22.2557 33.0003 22C32.6711 22.354 32.2908 22.7051 32.0003 23ZM33.0003 34C32.6711 33.6461 32.2908 33.3146 32.0003 33C31.7292 33.236 32.2133 32.8034 32.0003 33C32.3489 33.3736 32.7099 34.7051 33.0003 35C33.2521 34.7641 32.768 34.1967 33.0003 34ZM22.0003 34C22.2521 34.2753 21.768 34.7444 22.0003 35C22.3295 34.6658 22.6905 34.295 23.0003 34C22.7486 33.7248 23.2327 33.2753 23.0003 33C22.6518 33.3343 22.3295 33.6854 22.0003 34ZM22.0003 22C22.3295 22.354 21.7099 22.6854 22.0003 23C22.2714 22.7444 22.7486 23.236 23.0003 23C22.6711 22.6461 22.2908 22.295 22.0003 22C22.2521 21.7641 21.7292 22.236 22.0003 22ZM36.0003 29C36.0003 28.5871 36.0003 27.413 36.0003 27C35.5743 27 34.4263 27 34.0003 27C33.9422 27 34.0197 27.9214 34.0003 28C33.981 27.7641 33.981 28.2557 34.0003 28C34.0003 28.0787 33.9229 28.9804 34.0003 29C34.407 29 35.5743 29 36.0003 29ZM19.0003 27C19.0003 27.4326 19.0003 28.6068 19.0003 29C19.4263 29 20.5937 29 21.0003 29C20.981 29.0394 21.0584 29 21.0003 29C21.0197 28.7051 21.0197 28.2753 21.0003 28C21.0003 27.941 21.0584 27 21.0003 27C20.5937 26.9804 19.4457 27 19.0003 27Z" fill="#FCF4DE"/>
<path d="M30.0002 31C30.0002 32.4017 29.4074 33 28.0002 33C26.572 33 24.9792 31.4226 25.0002 30C25.0002 28.6192 26.593 28 28.0002 28C29.3864 28 30.0212 29.5983 30.0002 31ZM28.0002 29C27.1601 29 26.0212 29.1632 26.0002 30C26.0002 30.8577 27.1601 32.0209 28.0002 32C28.8403 32 28.9792 31.8368 29.0002 31C29.0212 30.1423 28.8613 28.9791 28.0002 29Z" fill="#FCF4DE"/>
<path d="M34 27C34 28.1121 33.1183 29 32 29C30.9032 29 30 28.0907 30 27C30 25.8879 30.8817 25 32 25C33.0968 24.9786 34 25.8879 34 27ZM33 27C33 26.4653 32.5376 25.9786 32 26C31.4624 26 31 26.4653 31 27C31 27.5347 31.4624 28.0214 32 28C32.5161 28 33 27.556 33 27Z" fill="#FCF4DE"/>
<path d="M26 27C25.1739 27 25 26.8321 25 26C25 25.1679 26.1739 24 27 24C27.8043 24 27.9783 24.1898 28 25C28 25.8321 26.8261 27 26 27ZM27 25C26.7826 25.2847 26.0435 24.8029 26 25C25.9565 25.2847 25.7174 25.9781 26 26C26.3043 26 27.0435 26.2628 27 26C26.9783 25.781 27.2174 25.2847 27 25Z" fill="#FCF4DE"/>
</g>
<defs>
<clipPath id="clip0_4384_13835">
<rect width="57" height="57" fill="white"/>
</clipPath>
</defs>
</svg>
