<svg width="57" height="57" viewBox="0 0 57 57" fill="none" xmlns="http://www.w3.org/2000/svg">
<g clip-path="url(#clip0_4384_13828)">
<path d="M29 57C44.7401 57 57 44.7401 57 29C57 13.2599 44.7401 0 29 0C13.2599 0 0 13.2599 0 29C0 44.7401 13.2599 57 29 57Z" fill="#B0421F"/>
<path d="M20.0002 9C20.2609 9.17896 20.7396 9.80116 21.0002 10C22.6643 11.2726 24.0955 12.145 26.0002 13C26.6819 13.2983 27.3386 13.2784 28.0002 13C29.1831 12.5029 30.717 11.9602 32.0002 12C34.2859 12.0597 36.2559 12.5485 38.0002 14C40.1856 15.8094 41.3787 18.2759 42.0002 21C42.7621 24.3007 42.2633 27.8782 41.0002 31C40.9401 31.1392 41.0604 30.8409 41.0002 31C41.3411 31.2187 41.6794 31.7614 42.0002 32C43.9851 33.4317 45.0804 35.5742 45.0002 38C44.9802 38.3579 44.321 38.0199 44.0002 38C43.6594 37.9801 43.9802 38.4176 44.0002 38C44.0604 36.2701 43.2834 34.1732 42.0002 33C40.3962 31.5485 39.0653 31.3438 37.0002 32C34.9552 32.6562 33.4213 33.8923 33.0002 36C32.3787 39.1218 33.8524 42.4234 37.0002 43C39.2859 43.4176 41.8574 42.0282 43.0002 40C43.2809 39.5029 43.6794 39.821 44.0002 40C44.301 40.179 44.301 40.5228 44.0002 41C42.5366 43.3861 40.7871 44.2585 38.0002 44C35.1732 43.7415 32.9826 41.6446 32.0002 39C31.9601 38.9006 32.0403 39.1392 32.0002 39C27.3286 39.8749 22.1705 39.3861 18.0002 37C18.0403 37.2983 18.9601 37.7813 19.0002 38C19.2609 39.551 19.3987 40.5485 20.0002 42C20.4213 43.0141 20.1029 44 19.0002 44C18.0779 44 16.9225 44 16.0002 44C15.4589 44 15.2609 43.4772 15.0002 43C13.7972 40.7332 12.3611 38.5452 12.0002 36C11.8198 34.7871 11.5391 33.1732 12.0002 32C12.5215 30.6678 13.5366 30.1193 15.0002 30C15.6418 29.9602 16.3386 29.9205 17.0002 30C17.6819 30.0795 18.3185 31.0199 19.0002 31C20.0027 30.9602 21.3987 29.7556 22.0002 29C23.0428 27.7274 23.6794 26.5907 24.0002 25C24.6418 21.8384 23.2458 19.3662 21.0002 17C20.2183 16.1848 19.9025 14.7158 19.0002 14C18.5591 13.6023 17.4614 13.3579 17.0002 13C16.2784 12.4234 16.4188 11.6959 17.0002 11C17.4814 10.4432 18.499 10.5369 19.0002 10C19.2007 9.80116 18.7797 9.17896 19.0002 9C19.2408 9 19.7596 9 20.0002 9ZM38.0002 31C38.5215 31.0597 39.4388 30.9006 40.0002 31C39.9 31.2386 40.2609 31.0398 40.0002 31C41.1631 28.256 41.5416 24.9428 41.0002 22C40.519 19.3753 40.0653 16.7896 38.0002 15C35.3537 12.7133 32.3285 12.7473 29.0002 14C27.9777 14.3778 27.0027 14.4573 26.0002 14C24.0354 13.0853 21.7044 11.372 20.0002 10C19.7396 9.78128 19.2007 9.76139 19.0002 10C18.5591 10.5369 18.4614 11.483 18.0002 12C17.6594 11.7415 17.7195 12.3181 18.0002 12C18.9626 12.7357 20.0378 14.2643 21.0002 15C22.0829 15.8152 23.3185 16.8268 24.0002 18C25.5841 20.7838 24.9626 22.9975 24.0002 26C23.5591 27.3919 23.0227 28.9263 22.0002 30C21.0378 31.0141 20.4237 32.1193 19.0002 32C18.1982 31.9205 16.8022 31.1591 16.0002 31C14.4163 30.6819 13.4213 31.4292 13.0002 33C12.7396 33.9544 12.8599 35.0456 13.0002 36C13.3611 38.3463 13.9175 40.9122 15.0002 43C15.0604 43.0994 15.9 43 16.0002 43C16.9426 43.0199 18.0579 43.0199 19.0002 43C19.2408 43 19.1005 42.2784 19.0002 42C18.9601 41.9006 19.0403 42.0994 19.0002 42C18.3586 40.3894 17.2408 38.7299 17.0002 37C16.92 36.5029 17.5591 36.2983 18.0002 36C18.4413 35.7017 18.5792 35.7415 19.0002 36C22.6292 38.0878 26.8499 38.6562 31.0002 38C31.5416 37.9205 32.0002 37.5369 32.0002 37C32.0002 36.6421 31.9802 36.3579 32.0002 36C32.0002 35.9006 32.0002 36.1193 32.0002 36C30.6368 36.4374 28.4037 37.1392 27.0002 37C25.9175 36.9006 25.8423 36.7158 25.0002 36C23.9777 35.145 22.7195 33.2925 23.0002 32C23.301 30.6479 24.7371 29.5965 26.0002 29C26.2408 28.8807 25.8799 29.8012 26.0002 30C26.1406 30.2187 26.1807 29.821 26.0002 30C25.92 30.0795 26.1205 29.9403 26.0002 30C25.3386 30.3778 25.2809 31.3041 25.0002 32C24.499 33.193 24.8574 34.3836 26.0002 35C26.4814 35.2585 26.4589 35.9006 27.0002 36C28.6242 36.2784 30.4965 35.5965 32.0002 35C31.9401 35.0994 32.1005 34.9602 32.0002 35C32.8824 33.1508 34.9953 31.5766 37.0002 31C36.9401 31.1392 37.1406 30.9602 37.0002 31C37.4814 30.0853 37.9802 29.034 38.0002 28C38.0203 27.1848 37.4614 25.7158 37.0002 25C36.4589 24.1848 36.0227 23.9602 35.0002 24C33.7972 24.0597 33.1807 24.7672 33.0002 26C32.7997 27.2726 32.1831 28.4631 31.0002 29C30.2985 29.2983 28.7421 29.7614 28.0002 30C27.6594 30.1193 28.0804 29.2983 28.0002 29C27.6193 29.0994 27.92 28.7017 28.0002 29C28.4614 28.8608 29.5591 28.1392 30.0002 28C31.123 27.6222 31.7997 27.2328 32.0002 26C32.2208 24.5286 32.5366 23.338 34.0002 23C35.4438 22.6819 37.0779 22.8865 38.0002 24C38.9225 25.1135 39.1807 26.628 39.0002 28C38.8599 28.8749 38.1807 30.2046 38.0002 31Z" fill="#FCF4DE"/>
<path d="M40 35C40.3951 35 40.6642 35 41 35C41.6914 35 42 35.3069 42 36C42 36.5941 42 37.4059 42 38C42 38.5941 41.5926 38.9802 41 39C40.6444 39 40.3556 38.9802 40 39C40 39 40.0593 38.9802 40 39C40 39.3168 40 39.6634 40 40C40 40.6931 39.6914 41 39 41C38.4272 41 37.5728 41 37 41C36.3679 41 36.0198 40.6337 36 40C36 39.6436 36 39.4158 36 39C35.6247 39 35.3556 39 35 39C34.3086 39 34 38.6733 34 38C34 37.4257 34 36.5743 34 36C34 35.3663 34.3679 35.0198 35 35C35.3556 34.9802 35.5852 35 36 35C36 34.6436 36 34.3366 36 34C36 33.2673 36.2691 33 37 33C37.5728 33 38.4272 33 39 33C39.6321 33 40 33.3663 40 34C40.0395 34.3564 40 34.604 40 35ZM37 40C37.5728 40 38.4469 40 39 40C39 39.6436 39 39.3168 39 39C39 38.2277 39.2296 38.0198 40 38C40.3358 38 40.6642 38 41 38C41 37.4257 41 36.5545 41 36C40.6444 36 40.3358 36 40 36C39.2691 36 39.0198 35.7327 39 35C39 34.6634 39 34.3366 39 34C38.4272 34 37.5531 34 37 34C37 34.3564 37 34.6634 37 35C37 35.6931 36.6914 35.9802 36 36C35.6444 36 35.3556 36 35 36C35 36.5743 35 37.4455 35 38C35.3556 38 35.6642 38 36 38C36.7506 38 36.9802 38.2475 37 39C37.0198 39.3168 37 39.6634 37 40Z" fill="#FCF4DE"/>
</g>
<defs>
<clipPath id="clip0_4384_13828">
<rect width="57" height="57" fill="white"/>
</clipPath>
</defs>
</svg>
